<?xml version="1.0" encoding="UTF-8" standalone="no"?>
<!DOCTYPE svg PUBLIC "-//W3C//DTD SVG 1.1//EN"
 "http://www.w3.org/Graphics/SVG/1.1/DTD/svg11.dtd">
<!-- Generated by graphviz version 6.0.1 (20220911.1526)
 -->
<!-- Pages: 1 -->
<svg width="874pt" height="902pt"
 viewBox="0.00 0.00 874.00 902.00" xmlns="http://www.w3.org/2000/svg" xmlns:xlink="http://www.w3.org/1999/xlink">
<g id="graph0" class="graph" transform="scale(1 1) rotate(0) translate(4 898)">
<polygon fill="white" stroke="none" points="-4,4 -4,-898 870,-898 870,4 -4,4"/>
<g id="clust2" class="cluster">
<title>cluster_func_1</title>
<polygon fill="none" stroke="black" points="342,-8 342,-886 858,-886 858,-8 342,-8"/>
<text text-anchor="start" x="552.5" y="-867.8" font-family="Arial,sans-serif" font-weight="bold" font-size="14.00">func_1 &quot;sum&quot;</text>
<text text-anchor="start" x="543" y="-845.8" font-family="Arial,sans-serif" font-size="14.00">Win64 (i32) &#45;&gt; i32</text>
</g>
<g id="clust1" class="cluster">
<title>cluster_func_0</title>
<polygon fill="none" stroke="black" points="8,-331 8,-745 334,-745 334,-331 8,-331"/>
<text text-anchor="start" x="122" y="-726.8" font-family="Arial,sans-serif" font-weight="bold" font-size="14.00">func_0 &quot;main&quot;</text>
<text text-anchor="start" x="124.5" y="-704.8" font-family="Arial,sans-serif" font-size="14.00">Win64 () &#45;&gt; i32</text>
</g>
<!-- block_0 -->
<g id="node1" class="node">
<title>block_0</title>
<polygon fill="none" stroke="black" points="234.5,-552.5 107.5,-552.5 107.5,-500.5 234.5,-500.5 234.5,-552.5"/>
<text text-anchor="start" x="144" y="-534.3" font-family="Arial,sans-serif" font-weight="bold" font-size="14.00">block_0</text>
<text text-anchor="start" x="120" y="-512.3" font-family="Arial,sans-serif" font-size="14.00">jump</text>
<text text-anchor="start" x="159" y="-512.3" font-family="Arial,sans-serif" font-size="14.00">block_2 ()</text>
</g>
<!-- block_2 -->
<g id="node2" class="node">
<title>block_2</title>
<polygon fill="none" stroke="black" points="325.5,-412 16.5,-412 16.5,-339 325.5,-339 325.5,-412"/>
<text text-anchor="start" x="72" y="-393.3" font-family="Arial,sans-serif" font-weight="bold" font-size="14.00">block_2 &quot;main_[0]6:18..7:19&quot;</text>
<text text-anchor="start" x="29" y="-371.3" font-family="Arial,sans-serif" font-size="14.00">instr_0</text>
<text text-anchor="start" x="78" y="-371.3" font-family="Arial,sans-serif" font-size="14.00">i32</text>
<text text-anchor="start" x="104" y="-371.3" font-family="Arial,sans-serif" font-size="14.00">call Win64 func_1 ( const(5u32) )</text>
<text text-anchor="start" x="29" y="-350.3" font-family="Arial,sans-serif" font-size="14.00">return</text>
<text text-anchor="start" x="104" y="-350.3" font-family="Arial,sans-serif" font-size="14.00">instr_0</text>
</g>
<!-- block_0&#45;&gt;block_2 -->
<g id="edge1" class="edge">
<title>block_0&#45;&gt;block_2</title>
<path fill="none" stroke="black" d="M171,-500.22C171,-478.99 171,-448.1 171,-422.49"/>
<polygon fill="black" stroke="black" points="174.5,-422.25 171,-412.25 167.5,-422.25 174.5,-422.25"/>
</g>
<!-- func_0_entry -->
<g id="node3" class="node">
<title>func_0_entry</title>
<polygon fill="none" stroke="black" points="171,-685 144,-667 171,-649 198,-667 171,-685"/>
</g>
<!-- func_0_entry&#45;&gt;block_0 -->
<g id="edge2" class="edge">
<title>func_0_entry&#45;&gt;block_0</title>
<path fill="none" stroke="black" d="M171,-648.74C171,-627.33 171,-590.29 171,-562.77"/>
<polygon fill="black" stroke="black" points="174.5,-562.74 171,-552.74 167.5,-562.74 174.5,-562.74"/>
</g>
<!-- func_1_slots -->
<g id="node4" class="node">
<title>func_1_slots</title>
<path fill="none" stroke="black" d="M837.5,-826C837.5,-826 716.5,-826 716.5,-826 710.5,-826 704.5,-820 704.5,-814 704.5,-814 704.5,-765 704.5,-765 704.5,-759 710.5,-753 716.5,-753 716.5,-753 837.5,-753 837.5,-753 843.5,-753 849.5,-759 849.5,-765 849.5,-765 849.5,-814 849.5,-814 849.5,-820 843.5,-826 837.5,-826"/>
<text text-anchor="start" x="717" y="-806.3" font-family="Arial,sans-serif" font-size="14.00">slot_0</text>
<text text-anchor="start" x="763" y="-806.3" font-family="Arial,sans-serif" font-size="14.00">i32</text>
<text text-anchor="start" x="789" y="-806.3" font-family="Arial,sans-serif" font-size="14.00">&quot;sum.n&quot;</text>
<text text-anchor="start" x="717" y="-785.3" font-family="Arial,sans-serif" font-size="14.00">slot_1</text>
<text text-anchor="start" x="763" y="-785.3" font-family="Arial,sans-serif" font-size="14.00">i32</text>
<text text-anchor="start" x="789" y="-785.3" font-family="Arial,sans-serif" font-size="14.00">&quot;sum.s&quot;</text>
<text text-anchor="start" x="717" y="-764.3" font-family="Arial,sans-serif" font-size="14.00">slot_2</text>
<text text-anchor="start" x="763" y="-764.3" font-family="Arial,sans-serif" font-size="14.00">i32</text>
<text text-anchor="start" x="791" y="-764.3" font-family="Arial,sans-serif" font-size="14.00">&quot;sum.i&quot;</text>
</g>
<!-- block_1 -->
<g id="node5" class="node">
<title>block_1</title>
<polygon fill="none" stroke="black" points="807,-714 511,-714 511,-620 807,-620 807,-714"/>
<text text-anchor="start" x="631.5" y="-695.8" font-family="Arial,sans-serif" font-weight="bold" font-size="14.00">block_1</text>
<text text-anchor="start" x="523" y="-673.8" font-family="Arial,sans-serif" font-size="14.00">param_0</text>
<text text-anchor="start" x="586" y="-673.8" font-family="Arial,sans-serif" font-size="14.00">i32</text>
<text text-anchor="start" x="523" y="-652.8" font-family="Arial,sans-serif" font-size="14.00">instr_1</text>
<text text-anchor="start" x="612" y="-652.8" font-family="Arial,sans-serif" font-size="14.00">store i32 [slot_0] &lt;&#45; param_0</text>
<text text-anchor="start" x="523" y="-631.8" font-family="Arial,sans-serif" font-size="14.00">jump</text>
<text text-anchor="start" x="612" y="-631.8" font-family="Arial,sans-serif" font-size="14.00">block_4 ()</text>
</g>
<!-- block_4 -->
<g id="node6" class="node">
<title>block_4</title>
<polygon fill="none" stroke="black" points="809.5,-584 508.5,-584 508.5,-469 809.5,-469 809.5,-584"/>
<text text-anchor="start" x="553.5" y="-565.3" font-family="Arial,sans-serif" font-weight="bold" font-size="14.00">block_4 &quot;sum_[0]10:23..15:14&quot;</text>
<text text-anchor="start" x="521" y="-543.3" font-family="Arial,sans-serif" font-size="14.00">instr_2</text>
<text text-anchor="start" x="596" y="-543.3" font-family="Arial,sans-serif" font-size="14.00">store i32 [slot_1] &lt;&#45; const(0u32)</text>
<text text-anchor="start" x="521" y="-522.3" font-family="Arial,sans-serif" font-size="14.00">instr_3</text>
<text text-anchor="start" x="570" y="-522.3" font-family="Arial,sans-serif" font-size="14.00">i32</text>
<text text-anchor="start" x="596" y="-522.3" font-family="Arial,sans-serif" font-size="14.00">load i32 [slot_0]</text>
<text text-anchor="start" x="521" y="-501.3" font-family="Arial,sans-serif" font-size="14.00">instr_4</text>
<text text-anchor="start" x="596" y="-501.3" font-family="Arial,sans-serif" font-size="14.00">store i32 [slot_2] &lt;&#45; const(0u32)</text>
<text text-anchor="start" x="521" y="-480.3" font-family="Arial,sans-serif" font-size="14.00">jump</text>
<text text-anchor="start" x="596" y="-480.3" font-family="Arial,sans-serif" font-size="14.00">block_5 ()</text>
</g>
<!-- block_1&#45;&gt;block_4 -->
<g id="edge3" class="edge">
<title>block_1&#45;&gt;block_4</title>
<path fill="none" stroke="black" d="M659,-619.88C659,-611.62 659,-602.87 659,-594.17"/>
<polygon fill="black" stroke="black" points="662.5,-594.02 659,-584.02 655.5,-594.02 662.5,-594.02"/>
</g>
<!-- block_5 -->
<g id="node7" class="node">
<title>block_5</title>
<polygon fill="none" stroke="black" points="759,-433 559,-433 559,-318 759,-318 759,-433"/>
<text text-anchor="start" x="631.5" y="-414.3" font-family="Arial,sans-serif" font-weight="bold" font-size="14.00">block_5</text>
<text text-anchor="start" x="571" y="-392.3" font-family="Arial,sans-serif" font-size="14.00">instr_5</text>
<text text-anchor="start" x="620" y="-392.3" font-family="Arial,sans-serif" font-size="14.00">i32</text>
<text text-anchor="start" x="646" y="-392.3" font-family="Arial,sans-serif" font-size="14.00">load i32 [slot_2]</text>
<text text-anchor="start" x="571" y="-371.3" font-family="Arial,sans-serif" font-size="14.00">branch</text>
<text text-anchor="start" x="646" y="-371.3" font-family="Arial,sans-serif" font-size="14.00">expr_0</text>
<text text-anchor="start" x="646" y="-350.3" font-family="Arial,sans-serif" font-size="14.00">block_7 ()</text>
<text text-anchor="start" x="646" y="-329.3" font-family="Arial,sans-serif" font-size="14.00">block_8 ()</text>
</g>
<!-- block_4&#45;&gt;block_5 -->
<g id="edge4" class="edge">
<title>block_4&#45;&gt;block_5</title>
<path fill="none" stroke="black" d="M659,-468.74C659,-460.44 659,-451.83 659,-443.35"/>
<polygon fill="black" stroke="black" points="662.5,-443.1 659,-433.1 655.5,-443.1 662.5,-443.1"/>
</g>
<!-- block_7 -->
<g id="node8" class="node">
<title>block_7</title>
<polygon fill="none" stroke="black" points="639.5,-282 360.5,-282 360.5,-125 639.5,-125 639.5,-282"/>
<text text-anchor="start" x="394.5" y="-263.3" font-family="Arial,sans-serif" font-weight="bold" font-size="14.00">block_7 &quot;sum_[0]12:19..13:16&quot;</text>
<text text-anchor="start" x="373" y="-241.3" font-family="Arial,sans-serif" font-size="14.00">instr_6</text>
<text text-anchor="start" x="431" y="-241.3" font-family="Arial,sans-serif" font-size="14.00">i32</text>
<text text-anchor="start" x="457" y="-241.3" font-family="Arial,sans-serif" font-size="14.00">load i32 [slot_0]</text>
<text text-anchor="start" x="373" y="-220.3" font-family="Arial,sans-serif" font-size="14.00">instr_7</text>
<text text-anchor="start" x="431" y="-220.3" font-family="Arial,sans-serif" font-size="14.00">i32</text>
<text text-anchor="start" x="457" y="-220.3" font-family="Arial,sans-serif" font-size="14.00">load i32 [slot_1]</text>
<text text-anchor="start" x="373" y="-199.3" font-family="Arial,sans-serif" font-size="14.00">instr_8</text>
<text text-anchor="start" x="457" y="-199.3" font-family="Arial,sans-serif" font-size="14.00">store i32 [slot_1] &lt;&#45; expr_1</text>
<text text-anchor="start" x="373" y="-178.3" font-family="Arial,sans-serif" font-size="14.00">instr_9</text>
<text text-anchor="start" x="431" y="-178.3" font-family="Arial,sans-serif" font-size="14.00">i32</text>
<text text-anchor="start" x="457" y="-178.3" font-family="Arial,sans-serif" font-size="14.00">load i32 [slot_2]</text>
<text text-anchor="start" x="373" y="-157.3" font-family="Arial,sans-serif" font-size="14.00">instr_10</text>
<text text-anchor="start" x="457" y="-157.3" font-family="Arial,sans-serif" font-size="14.00">store i32 [slot_2] &lt;&#45; expr_2</text>
<text text-anchor="start" x="373" y="-136.3" font-family="Arial,sans-serif" font-size="14.00">jump</text>
<text text-anchor="start" x="457" y="-136.3" font-family="Arial,sans-serif" font-size="14.00">block_10 ()</text>
</g>
<!-- block_5&#45;&gt;block_7 -->
<g id="edge5" class="edge">
<title>block_5&#45;&gt;block_7</title>
<path fill="none" stroke="green" d="M606.06,-317.89C597.49,-308.73 588.46,-299.08 579.43,-289.42"/>
<polygon fill="green" stroke="green" points="581.92,-286.96 572.53,-282.05 576.8,-291.74 581.92,-286.96"/>
</g>
<!-- block_8 -->
<g id="node9" class="node">
<title>block_8</title>
<polygon fill="none" stroke="black" points="805.5,-229.5 678.5,-229.5 678.5,-177.5 805.5,-177.5 805.5,-229.5"/>
<text text-anchor="start" x="715" y="-211.3" font-family="Arial,sans-serif" font-weight="bold" font-size="14.00">block_8</text>
<text text-anchor="start" x="691" y="-189.3" font-family="Arial,sans-serif" font-size="14.00">jump</text>
<text text-anchor="start" x="730" y="-189.3" font-family="Arial,sans-serif" font-size="14.00">block_6 ()</text>
</g>
<!-- block_5&#45;&gt;block_8 -->
<g id="edge6" class="edge">
<title>block_5&#45;&gt;block_8</title>
<path fill="none" stroke="red" d="M686.64,-317.89C699.43,-291.69 714.21,-261.43 725.27,-238.76"/>
<polygon fill="red" stroke="red" points="728.53,-240.06 729.77,-229.54 722.24,-236.99 728.53,-240.06"/>
</g>
<!-- block_10 -->
<g id="node10" class="node">
<title>block_10</title>
<polygon fill="none" stroke="black" points="591.5,-78.5 464.5,-78.5 464.5,-26.5 591.5,-26.5 591.5,-78.5"/>
<text text-anchor="start" x="496.5" y="-60.3" font-family="Arial,sans-serif" font-weight="bold" font-size="14.00">block_10</text>
<text text-anchor="start" x="477" y="-38.3" font-family="Arial,sans-serif" font-size="14.00">jump</text>
<text text-anchor="start" x="516" y="-38.3" font-family="Arial,sans-serif" font-size="14.00">block_5 ()</text>
</g>
<!-- block_7&#45;&gt;block_10 -->
<g id="edge7" class="edge">
<title>block_7&#45;&gt;block_10</title>
<path fill="none" stroke="black" d="M514.57,-124.95C516.97,-112.19 519.34,-99.56 521.41,-88.54"/>
<polygon fill="black" stroke="black" points="524.89,-89 523.3,-78.52 518.01,-87.71 524.89,-89"/>
</g>
<!-- block_6 -->
<g id="node11" class="node">
<title>block_6</title>
<polygon fill="none" stroke="black" points="846.5,-89 637.5,-89 637.5,-16 846.5,-16 846.5,-89"/>
<text text-anchor="start" x="715" y="-70.3" font-family="Arial,sans-serif" font-weight="bold" font-size="14.00">block_6</text>
<text text-anchor="start" x="650" y="-48.3" font-family="Arial,sans-serif" font-size="14.00">instr_11</text>
<text text-anchor="start" x="708" y="-48.3" font-family="Arial,sans-serif" font-size="14.00">i32</text>
<text text-anchor="start" x="734" y="-48.3" font-family="Arial,sans-serif" font-size="14.00">load i32 [slot_1]</text>
<text text-anchor="start" x="650" y="-27.3" font-family="Arial,sans-serif" font-size="14.00">return</text>
<text text-anchor="start" x="734" y="-27.3" font-family="Arial,sans-serif" font-size="14.00">instr_11</text>
</g>
<!-- block_8&#45;&gt;block_6 -->
<g id="edge8" class="edge">
<title>block_8&#45;&gt;block_6</title>
<path fill="none" stroke="black" d="M742,-177.22C742,-155.99 742,-125.1 742,-99.49"/>
<polygon fill="black" stroke="black" points="745.5,-99.25 742,-89.25 738.5,-99.25 745.5,-99.25"/>
</g>
<!-- block_10&#45;&gt;block_5 -->
<g id="edge9" class="edge">
<title>block_10&#45;&gt;block_5</title>
<path fill="none" stroke="black" d="M591.55,-76.15C613.57,-87.33 635.98,-103.22 649,-125 666.75,-154.7 666.25,-244.36 663.36,-307.66"/>
<polygon fill="black" stroke="black" points="659.85,-307.81 662.86,-317.97 666.84,-308.15 659.85,-307.81"/>
</g>
<!-- func_1_entry -->
<g id="node12" class="node">
<title>func_1_entry</title>
<polygon fill="none" stroke="black" points="659,-807.5 632,-789.5 659,-771.5 686,-789.5 659,-807.5"/>
</g>
<!-- func_1_entry&#45;&gt;block_1 -->
<g id="edge10" class="edge">
<title>func_1_entry&#45;&gt;block_1</title>
<path fill="none" stroke="black" d="M659,-771.49C659,-759.02 659,-741.32 659,-724.08"/>
<polygon fill="black" stroke="black" points="662.5,-724.02 659,-714.02 655.5,-724.02 662.5,-724.02"/>
</g>
<!-- func_1_expressions -->
<g id="node13" class="node">
<title>func_1_expressions</title>
<path fill="none" stroke="black" d="M601.5,-826C601.5,-826 362.5,-826 362.5,-826 356.5,-826 350.5,-820 350.5,-814 350.5,-814 350.5,-765 350.5,-765 350.5,-759 356.5,-753 362.5,-753 362.5,-753 601.5,-753 601.5,-753 607.5,-753 613.5,-759 613.5,-765 613.5,-765 613.5,-814 613.5,-814 613.5,-820 607.5,-826 601.5,-826"/>
<text text-anchor="start" x="363" y="-806.3" font-family="Arial,sans-serif" font-size="14.00">expr_0</text>
<text text-anchor="start" x="414" y="-806.3" font-family="Arial,sans-serif" font-size="14.00">i1</text>
<text text-anchor="start" x="440" y="-806.3" font-family="Arial,sans-serif" font-size="14.00">Lt(U)</text>
<text text-anchor="start" x="477" y="-806.3" font-family="Arial,sans-serif" font-size="14.00">instr_5</text>
<text text-anchor="start" x="526" y="-806.3" font-family="Arial,sans-serif" font-size="14.00">instr_3</text>
<text text-anchor="start" x="363" y="-785.3" font-family="Arial,sans-serif" font-size="14.00">expr_1</text>
<text text-anchor="start" x="414" y="-785.3" font-family="Arial,sans-serif" font-size="14.00">i32</text>
<text text-anchor="start" x="440" y="-785.3" font-family="Arial,sans-serif" font-size="14.00">Add</text>
<text text-anchor="start" x="477" y="-785.3" font-family="Arial,sans-serif" font-size="14.00">instr_7</text>
<text text-anchor="start" x="526" y="-785.3" font-family="Arial,sans-serif" font-size="14.00">instr_6</text>
<text text-anchor="start" x="363" y="-764.3" font-family="Arial,sans-serif" font-size="14.00">expr_2</text>
<text text-anchor="start" x="414" y="-764.3" font-family="Arial,sans-serif" font-size="14.00">i32</text>
<text text-anchor="start" x="440" y="-764.3" font-family="Arial,sans-serif" font-size="14.00">Add</text>
<text text-anchor="start" x="477" y="-764.3" font-family="Arial,sans-serif" font-size="14.00">instr_9</text>
<text text-anchor="start" x="526" y="-764.3" font-family="Arial,sans-serif" font-size="14.00">const(1u32)</text>
</g>
<!-- root_0 -->
<g id="node14" class="node">
<title>root_0</title>
<polygon fill="none" stroke="black" points="171,-807.5 118.72,-789.5 171,-771.5 223.28,-789.5 171,-807.5"/>
<text text-anchor="start" x="150.5" y="-785.8" font-family="Arial,sans-serif" font-size="14.00">&quot;main&quot;</text>
</g>
<!-- root_0&#45;&gt;func_0_entry -->
<g id="edge11" class="edge">
<title>root_0&#45;&gt;func_0_entry</title>
<path fill="none" stroke="black" d="M171,-771.49C171,-766.76 171,-761.27 171,-755.34"/>
<polygon fill="black" stroke="black" points="174.5,-755 171,-745 167.5,-755 174.5,-755"/>
</g>
</g>
</svg>
